# xmcd
#
# Track frame offsets: 
#        150
#        17039
#        33062
#        54756
#        68218
#        86890
#        107062
#        132874
#        149771
#        165792
#        195725
#        211465
#        243199
#
# Disc length: 4440 seconds
#
# Revision: 7
# Processed by: cddbd v1.5.2PL0 Copyright (c) Steve Scherf et al.
# Submitted via: ExactAudioCopy v1.3
#
DISCID=ac11560d
DTITLE=伍佰 and China Blue - 淚橋
DYEAR=2003
DGENRE=Blues
TTITLE0=淚橋 Tear Bridge
TTITLE1=頑石的飛行 Stone Flying
TTITLE2=海浪 Ocean Waves
TTITLE3=生命之歌 Songs of Life
TTITLE4=沒有頭 No Head
TTITLE5=敵人 The Enemy
TTITLE6=破碎的收音機 Broken Radio
TTITLE7=晚風 Late Wind
TTITLE8=活下去 Live On
TTITLE9=街角的薔薇 The Rose
TTITLE10=再度重相逢 Again, Meet Again
TTITLE11=花不香 Flower No Scent
TTITLE12=CCCD
EXTD=YEAR: 2003
EXTT0=
EXTT1=
EXTT2=
EXTT3=
EXTT4=
EXTT5=
EXTT6=
EXTT7=
EXTT8=
EXTT9=
EXTT10=
EXTT11=
EXTT12=
PLAYORDER=
